PathFileType	4	(X/Y/Z)	0_coords_data.trc
DataRate	CameraRate	NumFrames	NumMarkers	Units	OrigDataRate	OrigDataStartFrame	OrigNumFrames
30.0	30.0	7	21	m	30.0	32	62
Frame#	Time	THUMB_TIP	THUMB_IP	THUMB_MCP	THUMB_CMC	INDEX_TIP	INDEX_DIP	INDEX_PIP	INDEX_MCP	MIDDLE_TIP	MIDDLE_DIP	MIDDLE_PIP	MIDDLE_MCP	RING_TIP	RING_DIP	RING_PIP	RING_MCP	PINKY_TIP	PINKY_DIP	PINKY_PIP	PINKY_MCP	WRIST
X1	Y1	Z1	X2	Y2	Z2	X3	Y3	Z3	X4	Y4	Z4	X5	Y5	Z5	X6	Y6	Z6	X7	Y7	Z7	X8	Y8	Z8	X9	Y9	Z9	X10	Y10	Z10	X11	Y11	Z11	X12	Y12	Z12	X13	Y13	Z13	X14	Y14	Z14	X15	Y15	Z15	X16	Y16	Z16	X17	Y17	Z17	X18	Y18	Z18	X19	Y19	Z19	X20	Y20	Z20	X21	Y21	Z21
31	1.0333333333333334	-0.008135860443115234	-0.12249299621582031	0.9970590209960938	-0.006274330139160156	-0.09496600341796875	1.0078400268554688	-0.01563249969482422	-0.07660820007324219	1.03318994140625	-0.016468999862670898	-0.03974459838867188	1.04675	0.00023531299829483002	-0.05075439834594726	1.022489990234375	0.010345100402832031	-0.05537480163574219	0.9997169799804687	0.0023200900554656984	-0.06379679870605469	0.975468017578125	-0.03901530075073242	-0.06097409820556641	0.9898410034179688	-0.00039436998963356	-0.037273700714111326	1.019010009765625	0.01280109977722168	-0.036930400848388674	1.0020800170898438	0.007711589813232422	-0.04080379867553711	0.9705089721679687	-0.038978900909423825	-0.03585430145263672	0.9811699829101562	-0.003494250059127807	-0.020281299591064453	1.022030029296875	0.01114739990234375	-0.018666200637817383	1.0077899780273438	0.013927900314331054	-0.018008399963378906	0.9772960205078125	-0.033224998474121095	-0.011200200080871582	0.9814530029296875	-0.006350749969482422	-0.003907870054244995	1.0188200073242188	0.007686399936676026	-0.002312680006027221	1.0043400268554687	0.008881199836730956	0.0038208200931549073	0.9824730224609375	-0.02665719985961914	0.01217930030822754	0.9854669799804687	-0.0408125	-0.009075349807739257	1.065510009765625
32	1.0666666666666667	-0.007111499786376953	-0.12349600219726563	1.000719970703125	-0.005210659980773926	-0.09565959930419922	1.0102999877929688	-0.01508590030670166	-0.0769636001586914	1.0347900390625	-0.015756099700927735	-0.04016189956665039	1.047449951171875	0.013687199592590332	-0.05276760101318359	1.0129500122070312	0.01558769989013672	-0.05940069961547852	0.9900919799804687	0.000365716993808746	-0.067122802734375	0.9706409912109375	-0.038132198333740236	-0.06161840057373047	0.9908809814453124	0.011157400131225586	-0.03899850082397461	1.0132999877929687	0.020465900421142578	-0.04037179946899414	0.9913270263671875	0.005661870002746582	-0.043436000823974606	0.9641259765625	-0.03853810119628906	-0.0365004997253418	0.98168701171875	0.007142509937286377	-0.021613500595092774	1.0174400024414063	0.019156000137329102	-0.021051500320434572	0.998197021484375	0.011542900085449219	-0.02004840087890625	0.9686480102539062	-0.033656700134277344	-0.012171999931335449	0.98164501953125	0.002043200016021728	-0.006516749858856201	1.0118800048828125	0.014149999618530274	-0.004013150215148926	0.9963560180664063	0.008375040054321289	0.003701730012893676	0.9769310302734375	-0.0261781005859375	0.011107500076293946	0.9851690063476563	-0.04113079833984375	-0.008693739891052247	1.0664200439453124
33	1.1	-0.0067387399673461915	-0.12418399810791016	1.0028900146484374	-0.004873380184173584	-0.09629930114746094	1.0121599731445312	-0.015305800437927246	-0.07737640380859374	1.0360400390625	-0.016785499572753906	-0.04066709899902344	1.0490400390625	0.025164499282836914	-0.05719340133666992	1.0020399780273437	0.0192101993560791	-0.06363019943237305	0.9826669921875	-0.001631440043449401	-0.06969640350341796	0.9671329956054687	-0.037431400299072264	-0.062049400329589846	0.9917119750976563	0.024188699722290038	-0.04299290084838867	1.0033099975585937	0.025684999465942382	-0.04428929901123047	0.9811510009765625	0.004318140029907227	-0.045115699768066404	0.9592689819335938	-0.03763059997558594	-0.036601600646972654	0.9830079956054687	0.024787900924682617	-0.024365299224853514	1.007280029296875	0.028326900482177734	-0.02288330078125	0.985094970703125	0.01040429973602295	-0.020043800354003907	0.9614710083007812	-0.03187369918823242	-0.012607799530029298	0.9821099853515625	0.015431300163269043	-0.009654459953308105	1.004219970703125	0.020429300308227538	-0.003448499917984009	0.9879949951171875	0.008279210090637206	0.005517029762268066	0.9722769775390625	-0.02417650032043457	0.010823100090026856	0.9854310302734375	-0.041774398803710935	-0.008474200248718262	1.067199951171875
34	1.1333333333333333	-0.006220280170440674	-0.12527300262451171	1.0069000244140625	-0.004457099914550781	-0.09733989715576172	1.0159299926757812	-0.015522199630737305	-0.07810569763183593	1.0382900390625	-0.01726569938659668	-0.04061190032958984	1.05077001953125	0.03551150131225586	-0.06410610198974609	0.9869210205078125	0.02083300018310547	-0.06953790283203125	0.9724710083007813	-0.00413325023651123	-0.07302130126953126	0.9644869995117188	-0.03563079833984375	-0.06258319854736329	0.992927978515625	0.037406600952148435	-0.04955780029296875	0.988969970703125	0.028803499221801757	-0.049015701293945314	0.9686510009765625	0.001640499949455261	-0.04703260040283203	0.95427197265625	-0.0357510986328125	-0.0372661018371582	0.9835159912109375	0.04151020050048828	-0.027891700744628906	0.9885809936523438	0.03310369873046875	-0.024428600311279296	0.9684099731445313	0.007332940101623536	-0.02063170051574707	0.9535079956054687	-0.029022899627685547	-0.013828700065612792	0.9825040283203125	0.028116100311279296	-0.010721799850463867	0.9917620239257813	0.024695899963378905	-0.001356850028038025	0.9761400146484375	0.007587969779968262	0.00763985013961792	0.965843017578125	-0.021041500091552735	0.009532959938049316	0.98464697265625	-0.042466800689697264	-0.007929719924926758	1.0679200439453125
35	1.1666666666666667	-0.004810810089111328	-0.12648200225830078	1.0110999755859376	-0.003096689939498901	-0.0986686019897461	1.0190999755859376	-0.015367199897766113	-0.07855030059814454	1.040760009765625	-0.01732780075073242	-0.04065039825439453	1.051800048828125	0.04020539855957031	-0.07236720275878906	0.9728150024414063	0.020769599914550782	-0.07548069763183594	0.9642579956054688	-0.005585609912872314	-0.0759792022705078	0.9632109985351562	-0.03285139846801758	-0.06365829849243164	0.9938189697265625	0.046525600433349606	-0.054630199432373044	0.9702570190429688	0.029188899993896483	-0.05233169937133789	0.9562139892578125	-0.0008898149728775021	-0.04859460067749023	0.9508699951171875	-0.03271630096435547	-0.03858420181274414	0.9844409790039063	0.04915520095825195	-0.029575000762939452	0.965427001953125	0.03225	-0.02495280075073242	0.9523599853515625	0.002725019931793213	-0.0207898006439209	0.9474340209960938	-0.026137599945068358	-0.015377300262451172	0.982531005859375	0.03646939849853516	-0.00705787992477417	0.9748770141601563	0.025304899215698243	0.003121510028839111	0.9643319702148437	0.0048089599609375	0.010695799827575684	0.9604329833984375	-0.01824020004272461	0.00801531982421875	0.9842890014648438	-0.042918399810791014	-0.007961750030517578	1.0688900146484375
36	1.2	-0.003745300054550171	-0.1274459991455078	1.0143200073242187	-0.002358979940414428	-0.0994906997680664	1.0217100219726563	-0.015563899993896485	-0.07904720306396484	1.04256005859375	-0.017481599807739258	-0.04092129898071289	1.052489990234375	0.04032149887084961	-0.07927580261230469	0.9614550170898437	0.018875299453735353	-0.079643798828125	0.9584000244140625	-0.006806059837341309	-0.07763050079345703	0.96227099609375	-0.03068239974975586	-0.06453440093994141	0.9943720092773437	0.04942490005493164	-0.05811119842529297	0.9545999755859375	0.027597200393676757	-0.0541525993347168	0.947156982421875	-0.0027238900661468502	-0.049272899627685544	0.9486110229492187	-0.030428899765014648	-0.0393827018737793	0.9846209716796875	0.050643901824951175	-0.03042919921875	0.9500040283203125	0.03002090072631836	-0.025137800216674805	0.9430969848632812	0.00011288899928331302	-0.020711599349975587	0.94510302734375	-0.02366670036315918	-0.016452299118041993	0.9823159790039062	0.03907160186767578	-0.002956330060958862	0.963219970703125	0.024071399688720702	0.006800310134887695	0.9574140014648438	0.003149980068206787	0.012569999694824219	0.9585390014648437	-0.016145700454711913	0.0072081398963928225	0.9846060180664062	-0.043236099243164065	-0.008315340042114257	1.0694000244140625
37	1.2333333333333334	-0.002657929897308349	-0.12826600646972655	1.0176599731445313	-0.001663609981536865	-0.10036399841308594	1.02447998046875	-0.015270999908447266	-0.07935079956054687	1.0444000244140625	-0.01774920082092285	-0.04115829849243164	1.053719970703125	0.036497398376464846	-0.0864218978881836	0.9515269775390625	0.014699199676513671	-0.08397380065917968	0.953114990234375	-0.009316069602966309	-0.07961419677734374	0.9616900024414062	-0.028824199676513673	-0.06533219909667969	0.99522900390625	0.048399501800537106	-0.06125899887084961	0.9413350219726563	0.025257699966430663	-0.05633560180664063	0.940427001953125	-0.004442840099334717	-0.05041910171508789	0.9478920288085938	-0.02866939926147461	-0.040484901428222655	0.98547998046875	0.04903670120239258	-0.03161470031738281	0.9364229736328125	0.026720399856567382	-0.02617609977722168	0.936030029296875	-0.002117199897766113	-0.02156629943847656	0.9441279907226563	-0.021478300094604493	-0.01767690086364746	0.9828079833984374	0.03958670043945312	0.000232271000742912	0.9540040283203125	0.02260740089416504	0.008428520202636718	0.952573974609375	0.001867779970169067	0.012743100166320801	0.95756298828125	-0.014041399955749512	0.006124129772186279	0.9853189697265625	-0.04376490020751953	-0.00817002010345459	1.0702900390625
